<?xml version="1.0" encoding="UTF-8" standalone="no"?>
<svg
   version="1.1"
   viewBox="0.0 0.0 909.8372703412074 712.4750656167979"
   fill="none"
   stroke="none"
   stroke-linecap="square"
   stroke-miterlimit="10"
   id="svg29"
   sodipodi:docname="nx-triangle.svg"
   inkscape:version="1.1.1 (c3084ef, 2021-09-22)"
   xmlns:inkscape="http://www.inkscape.org/namespaces/inkscape"
   xmlns:sodipodi="http://sodipodi.sourceforge.net/DTD/sodipodi-0.dtd"
   xmlns="http://www.w3.org/2000/svg"
   xmlns:svg="http://www.w3.org/2000/svg">
  <defs
     id="defs33" />
  <sodipodi:namedview
     id="namedview31"
     pagecolor="#000000"
     bordercolor="#666666"
     borderopacity="1.0"
     inkscape:pageshadow="2"
     inkscape:pageopacity="0"
     inkscape:pagecheckerboard="true"
     showgrid="false"
     inkscape:zoom="1.1903227"
     inkscape:cx="335.62327"
     inkscape:cy="304.11921"
     inkscape:window-width="2781"
     inkscape:window-height="1380"
     inkscape:window-x="1352"
     inkscape:window-y="1145"
     inkscape:window-maximized="0"
     inkscape:current-layer="svg29"
     showguides="true"
     inkscape:guide-bbox="true">
    <sodipodi:guide
       position="452.13579,658.49809"
       orientation="1,0"
       id="guide1921" />
    <sodipodi:guide
       position="546.91051,154.64312"
       orientation="0,-1"
       id="guide924" />
    <sodipodi:guide
       position="220.94848,540.25285"
       orientation="1,0"
       id="guide926" />
    <sodipodi:guide
       position="452.38886,558.23555"
       orientation="1,0"
       id="guide928" />
    <sodipodi:guide
       position="688.88881,507.48863"
       orientation="1,0"
       id="guide930" />
    <sodipodi:guide
       position="951.00263,558.73522"
       orientation="0,-1"
       id="guide932" />
  </sodipodi:namedview>
  <clipPath
     id="p.0">
    <path
       d="m0 0l909.8373 0l0 712.47504l-909.8373 0l0 -712.47504z"
       clip-rule="nonzero"
       id="path2" />
  </clipPath>
  <path
     fill="#000000"
     fill-opacity="0"
     d="M 0,0 H 909.8373 V 712.47504 H 0 Z"
     fill-rule="evenodd"
     id="path5" />
  <path
     fill="#000000"
     fill-opacity="0"
     d="M 368.6929,42.642696 H 534.80316 V 120.2175 H 368.6929 Z"
     fill-rule="evenodd"
     id="path11" />
  <path
     fill="#ffffff"
     d="M 421.44724,74.68269 V 57.495194 h 5.1875 l 3.125,11.718746 3.07813,-11.718746 h 5.20312 V 74.68269 h -3.21875 V 61.151444 l -3.42187,13.531246 h -3.32813 L 424.66599,61.151444 V 74.68269 Z m 20.00781,-14.140621 v -3.046875 h 3.29688 v 3.046875 z m 0,14.140621 V 62.229569 h 3.29688 V 74.68269 Z m 17.52735,-8.765625 -3.25,0.578125 q -0.15625,-0.96875 -0.75,-1.453125 -0.57813,-0.5 -1.5,-0.5 -1.23438,0 -1.96875,0.859375 -0.71875,0.84375 -0.71875,2.828125 0,2.21875 0.73437,3.140625 0.75,0.90625 2,0.90625 0.9375,0 1.53125,-0.53125 0.60938,-0.53125 0.84375,-1.828125 l 3.23438,0.546875 q -0.5,2.21875 -1.9375,3.359375 -1.42188,1.140625 -3.82813,1.140625 -2.71875,0 -4.34375,-1.71875 -1.625,-1.734375 -1.625,-4.78125 0,-3.078125 1.625,-4.796871 1.625,-1.71875 4.40625,-1.71875 2.28125,0 3.60938,0.984375 1.34375,0.984375 1.9375,2.984371 z m 5.64453,8.765625 h -3.29688 V 62.229569 h 3.0625 v 1.781246 q 0.78125,-1.265621 1.40625,-1.656246 0.64063,-0.40625 1.4375,-0.40625 1.125,0 2.15625,0.625 l -1.01562,2.874996 q -0.82813,-0.546875 -1.54688,-0.546875 -0.6875,0 -1.17187,0.390625 -0.48438,0.375 -0.76563,1.375 -0.26562,1 -0.26562,4.171875 z m 5.43359,-6.40625 q 0,-1.640625 0.79688,-3.171875 0.8125,-1.531246 2.29687,-2.343746 1.48438,-0.8125 3.3125,-0.8125 2.82813,0 4.625,1.84375 1.8125,1.828121 1.8125,4.624996 0,2.828125 -1.82812,4.6875 -1.82813,1.859375 -4.59375,1.859375 -1.70313,0 -3.26563,-0.765625 -1.54687,-0.78125 -2.35937,-2.265625 -0.79688,-1.5 -0.79688,-3.65625 z m 3.375,0.1875 q 0,1.84375 0.875,2.828125 0.875,0.984375 2.17188,0.984375 1.28125,0 2.15625,-0.984375 0.875,-0.984375 0.875,-2.859375 0,-1.828125 -0.875,-2.8125 -0.875,-0.984375 -2.15625,-0.984375 -1.29688,0 -2.17188,0.984375 -0.875,0.984375 -0.875,2.84375 z"
     fill-rule="nonzero"
     id="path13" />
  <path
     fill="#ffffff"
     d="M 394.84958,103.4827 V 86.2952 h 11.78125 v 2.90625 h -8.3125 v 4.078125 h 7.17187 v 2.90625 h -7.17187 v 7.296875 z m 17.76953,0 h -3.29687 V 91.029575 h 3.0625 v 1.78125 q 0.78125,-1.265625 1.40625,-1.65625 0.64062,-0.40625 1.4375,-0.40625 1.125,0 2.15625,0.625 l -1.01563,2.875 q -0.82812,-0.546875 -1.54687,-0.546875 -0.6875,0 -1.17188,0.390625 -0.48437,0.375 -0.76562,1.375 -0.26563,1 -0.26563,4.171875 z m 5.43359,-6.40625 q 0,-1.640625 0.79688,-3.171875 0.8125,-1.53125 2.29687,-2.34375 1.48438,-0.8125 3.3125,-0.8125 2.82813,0 4.625,1.84375 1.8125,1.828125 1.8125,4.625 0,2.828125 -1.82812,4.687495 -1.82813,1.85938 -4.59375,1.85938 -1.70313,0 -3.26563,-0.76563 -1.54687,-0.78125 -2.35937,-2.26562 -0.79688,-1.5 -0.79688,-3.65625 z m 3.375,0.1875 q 0,1.84375 0.875,2.82812 0.875,0.98438 2.17188,0.98438 1.28125,0 2.15625,-0.98438 0.875,-0.98437 0.875,-2.85937 0,-1.828125 -0.875,-2.8125 -0.875,-0.984375 -2.15625,-0.984375 -1.29688,0 -2.17188,0.984375 -0.875,0.984375 -0.875,2.84375 z m 23.36329,6.21875 h -3.29688 v -6.359375 q 0,-2.015625 -0.21875,-2.59375 -0.20312,-0.59375 -0.6875,-0.921875 -0.46875,-0.328125 -1.125,-0.328125 -0.85937,0 -1.54687,0.46875 -0.67188,0.46875 -0.92188,1.25 -0.25,0.765625 -0.25,2.84375 v 5.640625 h -3.29687 V 91.029575 h 3.0625 V 92.8577 q 1.625,-2.109375 4.09375,-2.109375 1.09375,0 1.98437,0.40625 0.90625,0.390625 1.375,1 0.46875,0.609375 0.64063,1.390625 0.1875,0.765625 0.1875,2.203125 z m 9.05078,-12.453125 v 2.625 h -2.25 V 98.6702 q 0,1.53125 0.0625,1.78125 0.0625,0.25 0.28125,0.42187 0.23437,0.15625 0.5625,0.15625 0.45312,0 1.32812,-0.3125 l 0.28125,2.54688 q -1.15625,0.5 -2.60937,0.5 -0.89063,0 -1.60938,-0.29688 -0.70312,-0.29687 -1.04687,-0.76562 -0.32813,-0.48438 -0.45313,-1.29688 -0.10937,-0.57812 -0.10937,-2.312495 v -5.4375 h -1.51563 v -2.625 h 1.51563 v -2.46875 l 3.3125,-1.921875 v 4.390625 z m 9.49218,8.484375 3.28125,0.5625 q -0.64062,1.79687 -2.01562,2.75 -1.35938,0.9375 -3.40625,0.9375 -3.25,0 -4.79688,-2.125 -1.23437,-1.703125 -1.23437,-4.28125 0,-3.09375 1.60937,-4.84375 1.625,-1.765625 4.09375,-1.765625 2.78125,0 4.375,1.84375 1.60938,1.828125 1.54688,5.609375 h -8.25 q 0.0312,1.46875 0.79687,2.28125 0.76563,0.8125 1.89063,0.8125 0.78125,0 1.29687,-0.42188 0.53125,-0.42187 0.8125,-1.35937 z m 0.1875,-3.328125 q -0.0469,-1.421875 -0.75,-2.15625 -0.70312,-0.75 -1.70312,-0.75 -1.07813,0 -1.78125,0.78125 -0.70313,0.78125 -0.6875,2.125 z m 17.26954,7.296875 h -3.29688 v -6.359375 q 0,-2.015625 -0.21875,-2.59375 -0.20312,-0.59375 -0.6875,-0.921875 -0.46875,-0.328125 -1.125,-0.328125 -0.85937,0 -1.54687,0.46875 -0.67188,0.46875 -0.92188,1.25 -0.25,0.765625 -0.25,2.84375 v 5.640625 h -3.29687 V 91.029575 h 3.0625 V 92.8577 q 1.625,-2.109375 4.09375,-2.109375 1.09375,0 1.98437,0.40625 0.90625,0.390625 1.375,1 0.46875,0.609375 0.64063,1.390625 0.1875,0.765625 0.1875,2.203125 z m 14.7539,0 h -3.0625 v -1.82813 q -0.76562,1.0625 -1.79687,1.59375 -1.03125,0.51563 -2.09375,0.51563 -2.14063,0 -3.67188,-1.71875 -1.53125,-1.73438 -1.53125,-4.828125 0,-3.171875 1.48438,-4.8125 1.5,-1.65625 3.76562,-1.65625 2.09375,0 3.60938,1.734375 v -6.1875 h 3.29687 z m -8.79687,-6.5 q 0,2 0.5625,2.890625 0.79687,1.281245 2.21875,1.281245 1.14062,0 1.9375,-0.95312 0.79687,-0.96875 0.79687,-2.890625 0,-2.15625 -0.78125,-3.09375 -0.76562,-0.9375 -1.96875,-0.9375 -1.17187,0 -1.96875,0.9375 -0.79687,0.921875 -0.79687,2.765625 z m 10.8789,2.953125 3.3125,-0.515625 q 0.20313,0.96875 0.84375,1.46875 0.65625,0.5 1.8125,0.5 1.28125,0 1.92188,-0.46875 0.4375,-0.32813 0.4375,-0.89063 0,-0.374995 -0.23438,-0.60937 -0.25,-0.234375 -1.10937,-0.4375 -3.98438,-0.875 -5.04688,-1.609375 -1.48437,-1 -1.48437,-2.796875 0,-1.625 1.28125,-2.71875 1.28125,-1.109375 3.96875,-1.109375 2.54687,0 3.78125,0.84375 1.25,0.828125 1.71875,2.453125 l -3.10938,0.578125 q -0.1875,-0.734375 -0.75,-1.109375 -0.5625,-0.390625 -1.59375,-0.390625 -1.29687,0 -1.85937,0.359375 -0.375,0.265625 -0.375,0.671875 0,0.34375 0.32812,0.59375 0.45313,0.328125 3.07813,0.9375 2.625,0.59375 3.67187,1.453125 1.03125,0.875 1.03125,2.453125 0,1.703125 -1.4375,2.937495 -1.42187,1.23438 -4.21875,1.23438 -2.54687,0 -4.03125,-1.03125 -1.48437,-1.03125 -1.9375,-2.796875 z"
     fill-rule="nonzero"
     id="path15" />
  <path
     fill="#000000"
     fill-opacity="0"
     d="m 704.6116,566.03674 h 166.11023 v 77.57483 H 704.6116 Z"
     fill-rule="evenodd"
     id="path17" />
  <path
     fill="#ffffff"
     d="m 733.7448,591.7642 3.375,1.0625 q -0.78125,2.8125 -2.57812,4.1875 -1.79688,1.35937 -4.5625,1.35937 -3.42188,0 -5.625,-2.34375 -2.20313,-2.34375 -2.20313,-6.39062 0,-4.29688 2.20313,-6.65625 2.21875,-2.375 5.82812,-2.375 3.15625,0 5.125,1.85937 1.17188,1.09375 1.76563,3.15625 l -3.4375,0.82813 q -0.3125,-1.34375 -1.28125,-2.10938 -0.95313,-0.78125 -2.34375,-0.78125 -1.90625,0 -3.09375,1.375 -1.1875,1.375 -1.1875,4.4375 0,3.26563 1.17187,4.65625 1.17188,1.375 3.04688,1.375 1.375,0 2.375,-0.875 1,-0.89062 1.42187,-2.76562 z m 5.56641,-0.0937 q 0,-1.64063 0.79687,-3.17188 0.8125,-1.53125 2.29688,-2.34375 1.48437,-0.8125 3.3125,-0.8125 2.82812,0 4.625,1.84375 1.8125,1.82813 1.8125,4.625 0,2.82813 -1.82813,4.6875 -1.82812,1.85938 -4.59375,1.85938 -1.70312,0 -3.26562,-0.76563 -1.54688,-0.78125 -2.35938,-2.26562 -0.79687,-1.5 -0.79687,-3.65625 z m 3.375,0.1875 q 0,1.84375 0.875,2.82812 0.875,0.98438 2.17187,0.98438 1.28125,0 2.15625,-0.98438 0.875,-0.98437 0.875,-2.85937 0,-1.82813 -0.875,-2.8125 -0.875,-0.98438 -2.15625,-0.98438 -1.29687,0 -2.17187,0.98438 -0.875,0.98437 -0.875,2.84375 z m 11.80078,-6.23438 h 3.03125 v 1.70313 q 1.625,-1.98438 3.875,-1.98438 1.20312,0 2.07812,0.5 0.875,0.48438 1.4375,1.48438 0.82813,-1 1.76563,-1.48438 0.95312,-0.5 2.03125,-0.5 1.375,0 2.3125,0.5625 0.95312,0.5625 1.42187,1.64063 0.34375,0.79687 0.34375,2.57812 v 7.95313 h -3.29687 v -7.10938 q 0,-1.85937 -0.32813,-2.39062 -0.46875,-0.70313 -1.40625,-0.70313 -0.70312,0 -1.3125,0.42188 -0.60937,0.42187 -0.875,1.23437 -0.26562,0.8125 -0.26562,2.5625 v 5.98438 h -3.29688 v -6.82813 q 0,-1.8125 -0.17187,-2.32812 -0.17188,-0.53125 -0.54688,-0.78125 -0.375,-0.26563 -1,-0.26563 -0.76562,0 -1.375,0.40625 -0.60937,0.40625 -0.875,1.1875 -0.26562,0.76563 -0.26562,2.5625 v 6.04688 h -3.28125 z m 21.48047,0 h 3.07812 v 1.82813 q 0.59375,-0.9375 1.60938,-1.51563 1.03125,-0.59375 2.26562,-0.59375 2.17188,0 3.67188,1.70313 1.51562,1.70312 1.51562,4.73437 0,3.125 -1.53125,4.85938 -1.51562,1.71875 -3.67187,1.71875 -1.03125,0 -1.875,-0.40625 -0.84375,-0.42188 -1.76563,-1.40625 v 6.26562 h -3.29687 z m 3.26562,6.01563 q 0,2.09375 0.82813,3.10937 0.82812,1 2.03125,1 1.14062,0 1.90625,-0.92187 0.76562,-0.92188 0.76562,-3.01563 0,-1.96875 -0.79687,-2.90625 -0.78125,-0.95312 -1.9375,-0.95312 -1.20313,0 -2,0.9375 -0.79688,0.92187 -0.79688,2.75 z m 10.73828,0.0312 q 0,-1.64063 0.79688,-3.17188 0.8125,-1.53125 2.29687,-2.34375 1.48438,-0.8125 3.3125,-0.8125 2.82813,0 4.625,1.84375 1.8125,1.82813 1.8125,4.625 0,2.82813 -1.82812,4.6875 -1.82813,1.85938 -4.59375,1.85938 -1.70313,0 -3.26563,-0.76563 -1.54687,-0.78125 -2.35937,-2.26562 -0.79688,-1.5 -0.79688,-3.65625 z m 3.375,0.1875 q 0,1.84375 0.875,2.82812 0.875,0.98438 2.17188,0.98438 1.28125,0 2.15625,-0.98438 0.875,-0.98437 0.875,-2.85937 0,-1.82813 -0.875,-2.8125 -0.875,-0.98438 -2.15625,-0.98438 -1.29688,0 -2.17188,0.98438 -0.875,0.98437 -0.875,2.84375 z m 23.36328,6.21875 h -3.29687 v -6.35938 q 0,-2.01562 -0.21875,-2.59375 -0.20313,-0.59375 -0.6875,-0.92187 -0.46875,-0.32813 -1.125,-0.32813 -0.85938,0 -1.54688,0.46875 -0.67187,0.46875 -0.92187,1.25 -0.25,0.76563 -0.25,2.84375 v 5.64063 h -3.29688 v -12.45313 h 3.0625 v 1.82813 q 1.625,-2.10938 4.09375,-2.10938 1.09375,0 1.98438,0.40625 0.90625,0.39063 1.375,1 0.46875,0.60938 0.64062,1.39063 0.1875,0.76562 0.1875,2.20312 z m 10.55078,-3.96875 3.28125,0.5625 q -0.64062,1.79687 -2.01562,2.75 -1.35938,0.9375 -3.40625,0.9375 -3.25,0 -4.79688,-2.125 -1.23437,-1.70313 -1.23437,-4.28125 0,-3.09375 1.60937,-4.84375 1.625,-1.76563 4.09375,-1.76563 2.78125,0 4.375,1.84375 1.60938,1.82813 1.54688,5.60938 h -8.25 q 0.0312,1.46875 0.79687,2.28125 0.76563,0.8125 1.89063,0.8125 0.78125,0 1.29687,-0.42188 0.53125,-0.42187 0.8125,-1.35937 z m 0.1875,-3.32813 q -0.0469,-1.42187 -0.75,-2.15625 -0.70312,-0.75 -1.70312,-0.75 -1.07813,0 -1.78125,0.78125 -0.70313,0.78125 -0.6875,2.125 z m 17.26954,7.29688 h -3.29688 v -6.35938 q 0,-2.01562 -0.21875,-2.59375 -0.20312,-0.59375 -0.6875,-0.92187 -0.46875,-0.32813 -1.125,-0.32813 -0.85937,0 -1.54687,0.46875 -0.67188,0.46875 -0.92188,1.25 -0.25,0.76563 -0.25,2.84375 v 5.64063 h -3.29687 v -12.45313 h 3.0625 v 1.82813 q 1.625,-2.10938 4.09375,-2.10938 1.09375,0 1.98437,0.40625 0.90625,0.39063 1.375,1 0.46875,0.60938 0.64063,1.39063 0.1875,0.76562 0.1875,2.20312 z m 9.05078,-12.45313 v 2.625 h -2.25 v 5.01563 q 0,1.53125 0.0625,1.78125 0.0625,0.25 0.28125,0.42187 0.23437,0.15625 0.5625,0.15625 0.45312,0 1.32812,-0.3125 l 0.28125,2.54688 q -1.15625,0.5 -2.60937,0.5 -0.89063,0 -1.60938,-0.29688 -0.70312,-0.29687 -1.04687,-0.76562 -0.32813,-0.48438 -0.45313,-1.29688 -0.10937,-0.57812 -0.10937,-2.3125 v -5.4375 h -1.51563 v -2.625 h 1.51563 v -2.46875 l 3.3125,-1.92187 v 4.39062 z"
     fill-rule="nonzero"
     id="path19" />
  <path
     fill="#ffffff"
     d="m 752.6999,626.8768 v -17.1875 h 3.29687 v 17.1875 z m 6.66797,-14.14063 v -3.04687 h 3.29687 v 3.04687 z m 0,14.14063 v -12.45313 h 3.29687 v 12.45313 z m 6.52734,0 v -17.1875 h 3.29688 v 6.1875 q 1.53125,-1.73438 3.60937,-1.73438 2.28125,0 3.76563,1.65625 1.48437,1.64063 1.48437,4.71875 0,3.1875 -1.51562,4.92188 -1.51563,1.71875 -3.6875,1.71875 -1.0625,0 -2.10938,-0.53125 -1.03125,-0.53125 -1.78125,-1.57813 v 1.82813 z m 3.28125,-6.5 q 0,1.9375 0.60938,2.85937 0.84375,1.3125 2.26562,1.3125 1.09375,0 1.85938,-0.92187 0.76562,-0.9375 0.76562,-2.9375 0,-2.14063 -0.78125,-3.07813 -0.76562,-0.9375 -1.96875,-0.9375 -1.1875,0 -1.96875,0.92188 -0.78125,0.90625 -0.78125,2.78125 z m 14.67578,6.5 h -3.29687 v -12.45313 h 3.0625 v 1.78125 q 0.78125,-1.26562 1.40625,-1.65625 0.64062,-0.40625 1.4375,-0.40625 1.125,0 2.15625,0.625 l -1.01563,2.875 q -0.82812,-0.54687 -1.54687,-0.54687 -0.6875,0 -1.17188,0.39062 -0.48437,0.375 -0.76562,1.375 -0.26563,1 -0.26563,4.17188 z m 8.65235,-8.65625 -2.98438,-0.53125 q 0.5,-1.8125 1.71875,-2.67188 1.23438,-0.875 3.67188,-0.875 2.20312,0 3.28125,0.53125 1.07812,0.51563 1.51562,1.32813 0.4375,0.79687 0.4375,2.9375 l -0.0312,3.84375 q 0,1.64062 0.15625,2.42187 0.15625,0.78125 0.59375,1.67188 h -3.26562 q -0.125,-0.32813 -0.3125,-0.96875 -0.0781,-0.29688 -0.125,-0.39063 -0.84375,0.8125 -1.8125,1.23438 -0.95313,0.40625 -2.03125,0.40625 -1.92188,0 -3.03125,-1.04688 -1.10938,-1.04687 -1.10938,-2.64062 0,-1.04688 0.5,-1.875 0.5,-0.82813 1.40625,-1.26563 0.92188,-0.4375 2.625,-0.76562 2.3125,-0.4375 3.20313,-0.8125 v -0.32813 q 0,-0.95312 -0.46875,-1.34375 -0.46875,-0.40625 -1.76563,-0.40625 -0.89062,0 -1.39062,0.34375 -0.48438,0.34375 -0.78125,1.20313 z m 4.40625,2.67187 q -0.64063,0.21875 -2.01563,0.51563 -1.35937,0.28125 -1.78125,0.5625 -0.64062,0.46875 -0.64062,1.17187 0,0.6875 0.51562,1.1875 0.51563,0.5 1.3125,0.5 0.89063,0 1.6875,-0.57812 0.60938,-0.45313 0.79688,-1.09375 0.125,-0.42188 0.125,-1.60938 z m 9.6289,5.98438 h -3.29687 v -12.45313 h 3.0625 v 1.78125 q 0.78125,-1.26562 1.40625,-1.65625 0.64062,-0.40625 1.4375,-0.40625 1.125,0 2.15625,0.625 l -1.01563,2.875 q -0.82812,-0.54687 -1.54687,-0.54687 -0.6875,0 -1.17188,0.39062 -0.48437,0.375 -0.76562,1.375 -0.26563,1 -0.26563,4.17188 z m 4.63672,-12.45313 h 3.5 l 2.96875,8.84375 2.90625,-8.84375 h 3.42188 l -4.40625,11.98438 -0.78125,2.17187 q -0.4375,1.09375 -0.82813,1.65625 -0.39062,0.57813 -0.90625,0.9375 -0.5,0.35938 -1.25,0.54688 -0.73437,0.20312 -1.67187,0.20312 -0.95313,0 -1.875,-0.1875 l -0.28125,-2.57812 q 0.76562,0.14062 1.39062,0.14062 1.14063,0 1.6875,-0.67187 0.5625,-0.67188 0.85938,-1.71875 z"
     fill-rule="nonzero"
     id="path21" />
  <path
     fill="#000000"
     fill-opacity="0"
     d="M 54.199474,566.2441 H 207.33332 v 48.47247 H 54.199474 Z"
     fill-rule="evenodd"
     id="path23" />
  <path
     fill="#ffffff"
     d="m 74.4793,598.2841 v -17.1875 h 5.1875 l 3.125,11.71875 3.078125,-11.71875 h 5.203125 v 17.1875 H 87.8543 V 584.75285 L 84.432425,598.2841 H 81.1043 l -3.40625,-13.53125 v 13.53125 z m 19.257812,-6.40625 q 0,-1.64063 0.796875,-3.17188 0.8125,-1.53125 2.296875,-2.34375 1.484375,-0.8125 3.312498,-0.8125 2.82813,0 4.625,1.84375 1.8125,1.82813 1.8125,4.625 0,2.82813 -1.82812,4.6875 -1.82813,1.85938 -4.59375,1.85938 -1.703128,0 -3.265628,-0.76563 -1.546875,-0.78125 -2.359375,-2.26562 -0.796875,-1.5 -0.796875,-3.65625 z m 3.375,0.1875 q 0,1.84375 0.875,2.82812 0.875,0.98438 2.171878,0.98438 1.28125,0 2.15625,-0.98438 0.875,-0.98437 0.875,-2.85937 0,-1.82813 -0.875,-2.8125 -0.875,-0.98438 -2.15625,-0.98438 -1.296878,0 -2.171878,0.98438 -0.875,0.98437 -0.875,2.84375 z m 23.363278,6.21875 h -3.29687 v -6.35938 q 0,-2.01562 -0.21875,-2.59375 -0.20313,-0.59375 -0.6875,-0.92187 -0.46875,-0.32813 -1.125,-0.32813 -0.85938,0 -1.54688,0.46875 -0.67187,0.46875 -0.92187,1.25 -0.25,0.76563 -0.25,2.84375 v 5.64063 h -3.29688 v -12.45313 h 3.0625 v 1.82813 q 1.625,-2.10938 4.09375,-2.10938 1.09375,0 1.98438,0.40625 0.90625,0.39063 1.375,1 0.46875,0.60938 0.64062,1.39063 0.1875,0.76562 0.1875,2.20312 z m 2.58203,-6.40625 q 0,-1.64063 0.79688,-3.17188 0.8125,-1.53125 2.29687,-2.34375 1.48438,-0.8125 3.3125,-0.8125 2.82812,0 4.625,1.84375 1.8125,1.82813 1.8125,4.625 0,2.82813 -1.82813,4.6875 -1.82812,1.85938 -4.59375,1.85938 -1.70312,0 -3.26562,-0.76563 -1.54687,-0.78125 -2.35937,-2.26562 -0.79688,-1.5 -0.79688,-3.65625 z m 3.375,0.1875 q 0,1.84375 0.875,2.82812 0.875,0.98438 2.17187,0.98438 1.28125,0 2.15625,-0.98438 0.875,-0.98437 0.875,-2.85937 0,-1.82813 -0.875,-2.8125 -0.875,-0.98438 -2.15625,-0.98438 -1.29687,0 -2.17187,0.98438 -0.875,0.98437 -0.875,2.84375 z m 15.1914,6.21875 h -3.29687 v -12.45313 h 3.0625 v 1.78125 q 0.78125,-1.26562 1.40625,-1.65625 0.64062,-0.40625 1.4375,-0.40625 1.125,0 2.15625,0.625 l -1.01563,2.875 q -0.82812,-0.54687 -1.54687,-0.54687 -0.6875,0 -1.17188,0.39062 -0.48437,0.375 -0.76562,1.375 -0.26563,1 -0.26563,4.17188 z m 13.40235,-3.96875 3.28125,0.5625 q -0.64063,1.79687 -2.01563,2.75 -1.35937,0.9375 -3.40625,0.9375 -3.25,0 -4.79687,-2.125 -1.23438,-1.70313 -1.23438,-4.28125 0,-3.09375 1.60938,-4.84375 1.625,-1.76563 4.09375,-1.76563 2.78125,0 4.375,1.84375 1.60937,1.82813 1.54687,5.60938 h -8.25 q 0.0312,1.46875 0.79688,2.28125 0.76562,0.8125 1.89062,0.8125 0.78125,0 1.29688,-0.42188 0.53125,-0.42187 0.8125,-1.35937 z m 0.1875,-3.32813 q -0.0469,-1.42187 -0.75,-2.15625 -0.70313,-0.75 -1.70313,-0.75 -1.07812,0 -1.78125,0.78125 -0.70312,0.78125 -0.6875,2.125 z m 5.84765,-5.15625 h 3.07813 v 1.82813 q 0.59375,-0.9375 1.60937,-1.51563 1.03125,-0.59375 2.26563,-0.59375 2.17187,0 3.67187,1.70313 1.51563,1.70312 1.51563,4.73437 0,3.125 -1.53125,4.85938 -1.51563,1.71875 -3.67188,1.71875 -1.03125,0 -1.875,-0.40625 -0.84375,-0.42188 -1.76562,-1.40625 v 6.26562 h -3.29688 z m 3.26563,6.01563 q 0,2.09375 0.82812,3.10937 0.82813,1 2.03125,1 1.14063,0 1.90625,-0.92187 0.76563,-0.92188 0.76563,-3.01563 0,-1.96875 -0.79688,-2.90625 -0.78125,-0.95312 -1.9375,-0.95312 -1.20312,0 -2,0.9375 -0.79687,0.92187 -0.79687,2.75 z m 10.73828,0.0312 q 0,-1.64063 0.79687,-3.17188 0.8125,-1.53125 2.29688,-2.34375 1.48437,-0.8125 3.3125,-0.8125 2.82812,0 4.625,1.84375 1.8125,1.82813 1.8125,4.625 0,2.82813 -1.82813,4.6875 -1.82812,1.85938 -4.59375,1.85938 -1.70312,0 -3.26562,-0.76563 -1.54688,-0.78125 -2.35938,-2.26562 -0.79687,-1.5 -0.79687,-3.65625 z m 3.375,0.1875 q 0,1.84375 0.875,2.82812 0.875,0.98438 2.17187,0.98438 1.28125,0 2.15625,-0.98438 0.875,-0.98437 0.875,-2.85937 0,-1.82813 -0.875,-2.8125 -0.875,-0.98438 -2.15625,-0.98438 -1.29687,0 -2.17187,0.98438 -0.875,0.98437 -0.875,2.84375 z"
     fill-rule="nonzero"
     id="path25" />
  <g
     id="g1737"
     transform="matrix(0.68309358,0,0,0.68309358,382.66257,362.26769)">
    <path
       d="M 39.370693,0 95.334998,94.219626 95.383918,51.571303 127.85691,102.33054 94.444657,154.8411 39.057606,64.955773 38.930414,159.05799 H 0 V 0 Z m 94.894717,44.468113 16.20226,25.438349 0.20546,0.352223 c 10.58799,-16.109246 28.57612,-25.803932 47.85339,-25.790572 31.24746,0 56.65505,26.44723 57.274,57.582817 l 0.0111,1.05254 h -0.0294 l -9.5e-4,0.39515 c -0.0564,2.58543 -1.4373,4.96989 -3.66843,6.30285 -2.31083,1.38057 -5.18264,1.42347 -7.53366,0.11252 -2.26995,-1.26574 -3.72144,-3.60789 -3.85502,-6.19049 l -0.009,-0.27759 -0.004,-0.35766 c -0.12436,-4.923998 -2.83267,-6.92225 -6.38925,-8.395722 l -0.52632,-0.212162 v 0 l -0.53723,-0.206342 v 0 l -0.54693,-0.202194 v 0 l -2.83769,-1.007275 v 0 l -0.5797,-0.21242 v 0 l -0.58093,-0.219978 v 0 l -0.58095,-0.229207 c -0.0968,-0.03906 -0.19347,-0.07858 -0.2901,-0.118586 l -0.57872,-0.246186 v 0 l -0.57571,-0.259595 c -2.29526,-1.067429 -4.48951,-2.496817 -6.23461,-4.769742 l -0.20465,-0.273609 v 0 l -0.20346,-0.28498 v 0 l -0.30445,-0.44727 v 0 l -0.40805,-0.629659 v 0 l -1.28978,-2.064349 v 0 l -0.46971,-0.727989 v 0 L 217.202,82.027704 v 0 l -0.25741,-0.371019 v 0 l -0.40299,-0.558032 v 0 l -0.2809,-0.372009 v 0 l -0.29146,-0.371185 c -0.0495,-0.06176 -0.0995,-0.12345 -0.14991,-0.185065 l -0.30858,-0.368643 c -3.04102,-3.552264 -7.79881,-6.744851 -17.00317,-6.744851 -7.61155,-0.0026 -14.9121,3.01993 -20.29428,8.402108 -5.38218,5.382179 -8.4047,12.682725 -8.40211,20.294272 0.0209,1.08524 0.27793,2.15156 0.75156,3.12533 l 0.14857,0.28928 34.24389,53.8901 H 167.18909 L 150.46829,133.82513 134.041,159.05799 H 96.284043 L 132.32819,102.31097 95.393702,44.468113 Z M 255.8508,111.22417 c 0.3838,2.68256 0.004,5.419 -1.0958,7.89566 -1.3217,3.05792 -3.18567,3.61105 -4.42763,3.58249 l -0.20659,-0.0102 v 0 l -0.19311,-0.0195 v 0 l -0.17832,-0.0266 v 0 l -0.23688,-0.0484 v 0 l -0.19627,-0.0523 v 0 l -0.25308,-0.087 v 0 l -0.0919,-0.0427 v 0 l -0.11146,-0.0628 v 0 l -0.16704,-0.1043 v 0 l -0.13467,-0.0925 v 0 l -0.148,-0.11078 v 0 l -0.1568,-0.12899 c -0.0266,-0.023 -0.0534,-0.0468 -0.0803,-0.0713 l -0.16149,-0.15618 c -0.6975,-0.71588 -1.32294,-1.9397 -0.21291,-3.64523 0.82097,-1.26806 1.95775,-1.97888 3.14717,-2.61757 l 1.20121,-0.63475 c 1.43903,-0.7762 2.82675,-1.68301 3.70383,-3.5671 z M 134.36325,0 v 40.437146 l -0.088,0.450062 H 95.393702 L 95.383918,40.437146 95.432838,0 Z"
       fill="#012f55"
       id="path1731"
       style="fill:#ffffff" />
    <path
       d="m 194.36834,84.983559 c -9.31447,-0.17658 -17.72981,5.534248 -21.00619,14.255243 5.45436,-8.156795 15.83993,-11.434308 24.98826,-7.885879 4.22668,1.721978 9.78397,4.500626 14.18676,3.013463 -4.18724,-5.876369 -10.95326,-9.370504 -18.16883,-9.382827 z"
       fill="#96d8e9"
       id="path1733" />
    <path
       d="m 238.48426,104.121 c 0,-4.76479 -2.59276,-5.870379 -7.97394,-7.827172 -3.99186,-1.389324 -8.52184,-2.954759 -11.81904,-7.259706 -0.64574,-0.851205 -1.24256,-1.810034 -1.87852,-2.827567 -1.42472,-2.6354 -3.35662,-4.962988 -5.68448,-6.848779 -3.14066,-2.309016 -7.25971,-3.434173 -12.60176,-3.434173 -10.71906,0.0075 -20.3759,6.477591 -24.45992,16.388149 5.16297,-7.163994 13.74326,-11.04561 22.53263,-10.193467 8.78936,0.852143 16.46421,6.309722 20.15483,14.332086 1.8439,3.042582 5.48033,4.495559 8.9132,3.561369 5.25399,-1.125161 4.89198,3.8451 12.82678,5.52794 z"
       fill="#48c4e5"
       id="path1735" />
  </g>
  <path
     style="fill:none;stroke:#ffffff;stroke-width:30.23622047;stroke-linecap:butt;stroke-linejoin:miter;stroke-opacity:1;stroke-miterlimit:10;stroke-dasharray:none"
     d="M 220.94848,557.83192 452.38885,154.23949 688.8888,557.83192 Z"
     id="path1871" />
</svg>
