<svg version="1.1" viewBox="0.0 0.0 909.8372703412074 712.4750656167979" fill="none" stroke="none" stroke-linecap="square" stroke-miterlimit="10" xmlns:xlink="http://www.w3.org/1999/xlink" xmlns="http://www.w3.org/2000/svg"><clipPath id="p.0"><path d="m0 0l909.8373 0l0 712.47504l-909.8373 0l0 -712.47504z" clip-rule="nonzero"/></clipPath><g clip-path="url(#p.0)"><path fill="#000000" fill-opacity="0.0" d="m0 0l909.8373 0l0 712.47504l-909.8373 0z" fill-rule="evenodd"/><path fill="#ffffff" d="m254.43903 532.7267l200.4636 -352.97864l200.4636 352.97864z" fill-rule="evenodd"/><path fill="#001a36" d="m281.62286 514.8807l173.28046 -305.11404l173.28046 305.11404z" fill-rule="evenodd"/><path fill="#000000" fill-opacity="0.0" d="m368.6929 42.642696l166.11026 0l0 77.5748l-166.11026 0z" fill-rule="evenodd"/><path fill="#ffffff" d="m421.44724 74.68269l0 -17.187496l5.1875 0l3.125 11.718746l3.078125 -11.718746l5.203125 0l0 17.187496l-3.21875 0l0 -13.531246l-3.421875 13.531246l-3.328125 0l-3.40625 -13.531246l0 13.531246l-3.21875 0zm20.007812 -14.140621l0 -3.046875l3.296875 0l0 3.046875l-3.296875 0zm0 14.140621l0 -12.453121l3.296875 0l0 12.453121l-3.296875 0zm17.527344 -8.765625l-3.25 0.578125q-0.15625 -0.96875 -0.75 -1.453125q-0.578125 -0.5 -1.5 -0.5q-1.234375 0 -1.96875 0.859375q-0.71875 0.84375 -0.71875 2.828125q0 2.21875 0.734375 3.140625q0.75 0.90625 2.0 0.90625q0.9375 0 1.53125 -0.53125q0.609375 -0.53125 0.84375 -1.828125l3.234375 0.546875q-0.5 2.21875 -1.9375 3.359375q-1.421875 1.140625 -3.828125 1.140625q-2.71875 0 -4.34375 -1.71875q-1.625 -1.734375 -1.625 -4.78125q0 -3.078125 1.625 -4.796871q1.625 -1.71875 4.40625 -1.71875q2.28125 0 3.609375 0.984375q1.34375 0.984375 1.9375 2.9843712zm5.6445312 8.765625l-3.296875 0l0 -12.453121l3.0625 0l0 1.7812462q0.78125 -1.2656212 1.40625 -1.6562462q0.640625 -0.40625 1.4375 -0.40625q1.125 0 2.15625 0.625l-1.015625 2.8749962q-0.828125 -0.546875 -1.546875 -0.546875q-0.6875 0 -1.171875 0.390625q-0.484375 0.375 -0.765625 1.375q-0.265625 1.0 -0.265625 4.171875l0 3.84375zm5.4335938 -6.40625q0 -1.640625 0.796875 -3.171875q0.8125 -1.5312462 2.296875 -2.3437462q1.484375 -0.8125 3.3125 -0.8125q2.828125 0 4.625 1.84375q1.8125 1.8281212 1.8125 4.624996q0 2.828125 -1.828125 4.6875q-1.828125 1.859375 -4.59375 1.859375q-1.703125 0 -3.265625 -0.765625q-1.546875 -0.78125 -2.359375 -2.265625q-0.796875 -1.5 -0.796875 -3.65625zm3.375 0.1875q0 1.84375 0.875 2.828125q0.875 0.984375 2.171875 0.984375q1.28125 0 2.15625 -0.984375q0.875 -0.984375 0.875 -2.859375q0 -1.828125 -0.875 -2.8125q-0.875 -0.984375 -2.15625 -0.984375q-1.296875 0 -2.171875 0.984375q-0.875 0.984375 -0.875 2.84375z" fill-rule="nonzero"/><path fill="#ffffff" d="m394.84958 103.4827l0 -17.1875l11.78125 0l0 2.90625l-8.3125 0l0 4.078125l7.171875 0l0 2.90625l-7.171875 0l0 7.296875l-3.46875 0zm17.769531 0l-3.296875 0l0 -12.453125l3.0625 0l0 1.78125q0.78125 -1.265625 1.40625 -1.65625q0.640625 -0.40625 1.4375 -0.40625q1.125 0 2.15625 0.625l-1.015625 2.875q-0.828125 -0.546875 -1.546875 -0.546875q-0.6875 0 -1.171875 0.390625q-0.484375 0.375 -0.765625 1.375q-0.265625 1.0 -0.265625 4.171875l0 3.84375zm5.4335938 -6.40625q0 -1.640625 0.796875 -3.171875q0.8125 -1.53125 2.296875 -2.34375q1.484375 -0.8125 3.3125 -0.8125q2.828125 0 4.625 1.84375q1.8125 1.828125 1.8125 4.625q0 2.828125 -1.828125 4.6875q-1.828125 1.859375 -4.59375 1.859375q-1.703125 0 -3.265625 -0.765625q-1.546875 -0.78125 -2.359375 -2.265625q-0.796875 -1.5 -0.796875 -3.65625zm3.375 0.1875q0 1.84375 0.875 2.828125q0.875 0.984375 2.171875 0.984375q1.28125 0 2.15625 -0.984375q0.875 -0.984375 0.875 -2.859375q0 -1.828125 -0.875 -2.8125q-0.875 -0.984375 -2.15625 -0.984375q-1.296875 0 -2.171875 0.984375q-0.875 0.984375 -0.875 2.84375zm23.363281 6.21875l-3.296875 0l0 -6.359375q0 -2.015625 -0.21875 -2.59375q-0.203125 -0.59375 -0.6875 -0.921875q-0.46875 -0.328125 -1.125 -0.328125q-0.859375 0 -1.546875 0.46875q-0.671875 0.46875 -0.921875 1.25q-0.25 0.765625 -0.25 2.84375l0 5.640625l-3.296875 0l0 -12.453125l3.0625 0l0 1.828125q1.625 -2.109375 4.09375 -2.109375q1.09375 0 1.984375 0.40625q0.90625 0.390625 1.375 1.0q0.46875 0.609375 0.640625 1.390625q0.1875 0.765625 0.1875 2.203125l0 7.734375zm9.050781 -12.453125l0 2.625l-2.25 0l0 5.015625q0 1.53125 0.0625 1.78125q0.0625 0.25 0.28125 0.421875q0.234375 0.15625 0.5625 0.15625q0.453125 0 1.328125 -0.3125l0.28125 2.546875q-1.15625 0.5 -2.609375 0.5q-0.890625 0 -1.609375 -0.296875q-0.703125 -0.296875 -1.046875 -0.765625q-0.328125 -0.484375 -0.453125 -1.296875q-0.109375 -0.578125 -0.109375 -2.3125l0 -5.4375l-1.515625 0l0 -2.625l1.515625 0l0 -2.46875l3.3125 -1.921875l0 4.390625l2.25 0zm9.4921875 8.484375l3.28125 0.5625q-0.640625 1.796875 -2.015625 2.75q-1.359375 0.9375 -3.40625 0.9375q-3.25 0 -4.796875 -2.125q-1.234375 -1.703125 -1.234375 -4.28125q0 -3.09375 1.609375 -4.84375q1.625 -1.765625 4.09375 -1.765625q2.78125 0 4.375 1.84375q1.609375 1.828125 1.546875 5.609375l-8.25 0q0.03125 1.46875 0.796875 2.28125q0.765625 0.8125 1.890625 0.8125q0.78125 0 1.296875 -0.421875q0.53125 -0.421875 0.8125 -1.359375zm0.1875 -3.328125q-0.046875 -1.421875 -0.75 -2.15625q-0.703125 -0.75 -1.703125 -0.75q-1.078125 0 -1.78125 0.78125q-0.703125 0.78125 -0.6875 2.125l4.921875 0zm17.269531 7.296875l-3.296875 0l0 -6.359375q0 -2.015625 -0.21875 -2.59375q-0.203125 -0.59375 -0.6875 -0.921875q-0.46875 -0.328125 -1.125 -0.328125q-0.859375 0 -1.546875 0.46875q-0.671875 0.46875 -0.921875 1.25q-0.25 0.765625 -0.25 2.84375l0 5.640625l-3.296875 0l0 -12.453125l3.0625 0l0 1.828125q1.625 -2.109375 4.09375 -2.109375q1.09375 0 1.984375 0.40625q0.90625 0.390625 1.375 1.0q0.46875 0.609375 0.640625 1.390625q0.1875 0.765625 0.1875 2.203125l0 7.734375zm14.753906 0l-3.0625 0l0 -1.828125q-0.765625 1.0625 -1.796875 1.59375q-1.03125 0.515625 -2.09375 0.515625q-2.140625 0 -3.671875 -1.71875q-1.53125 -1.734375 -1.53125 -4.828125q0 -3.171875 1.484375 -4.8125q1.5 -1.65625 3.765625 -1.65625q2.09375 0 3.609375 1.734375l0 -6.1875l3.296875 0l0 17.1875zm-8.796875 -6.5q0 2.0 0.5625 2.890625q0.796875 1.28125 2.21875 1.28125q1.140625 0 1.9375 -0.953125q0.796875 -0.96875 0.796875 -2.890625q0 -2.15625 -0.78125 -3.09375q-0.765625 -0.9375 -1.96875 -0.9375q-1.171875 0 -1.96875 0.9375q-0.796875 0.921875 -0.796875 2.765625zm10.878906 2.953125l3.3125 -0.515625q0.203125 0.96875 0.84375 1.46875q0.65625 0.5 1.8125 0.5q1.28125 0 1.921875 -0.46875q0.4375 -0.328125 0.4375 -0.890625q0 -0.375 -0.234375 -0.609375q-0.25 -0.234375 -1.109375 -0.4375q-3.984375 -0.875 -5.046875 -1.609375q-1.484375 -1.0 -1.484375 -2.796875q0 -1.625 1.28125 -2.71875q1.28125 -1.109375 3.96875 -1.109375q2.546875 0 3.78125 0.84375q1.25 0.828125 1.71875 2.453125l-3.109375 0.578125q-0.1875 -0.734375 -0.75 -1.109375q-0.5625 -0.390625 -1.59375 -0.390625q-1.296875 0 -1.859375 0.359375q-0.375 0.265625 -0.375 0.671875q0 0.34375 0.328125 0.59375q0.453125 0.328125 3.078125 0.9375q2.625 0.59375 3.671875 1.453125q1.03125 0.875 1.03125 2.453125q0 1.703125 -1.4375 2.9375q-1.421875 1.234375 -4.21875 1.234375q-2.546875 0 -4.03125 -1.03125q-1.484375 -1.03125 -1.9375 -2.796875z" fill-rule="nonzero"/><path fill="#000000" fill-opacity="0.0" d="m704.6116 566.03674l166.11023 0l0 77.57483l-166.11023 0z" fill-rule="evenodd"/><path fill="#ffffff" d="m733.7448 591.7642l3.375 1.0625q-0.78125 2.8125 -2.578125 4.1875q-1.796875 1.359375 -4.5625 1.359375q-3.421875 0 -5.625 -2.34375q-2.203125 -2.34375 -2.203125 -6.390625q0 -4.296875 2.203125 -6.65625q2.21875 -2.375 5.828125 -2.375q3.15625 0 5.125 1.859375q1.171875 1.09375 1.765625 3.15625l-3.4375 0.828125q-0.3125 -1.34375 -1.28125 -2.109375q-0.953125 -0.78125 -2.34375 -0.78125q-1.90625 0 -3.09375 1.375q-1.1875 1.375 -1.1875 4.4375q0 3.265625 1.171875 4.65625q1.171875 1.375 3.046875 1.375q1.375 0 2.375 -0.875q1.0 -0.890625 1.421875 -2.765625zm5.5664062 -0.09375q0 -1.640625 0.796875 -3.171875q0.8125 -1.53125 2.296875 -2.34375q1.484375 -0.8125 3.3125 -0.8125q2.828125 0 4.625 1.84375q1.8125 1.828125 1.8125 4.625q0 2.828125 -1.828125 4.6875q-1.828125 1.859375 -4.59375 1.859375q-1.703125 0 -3.265625 -0.765625q-1.546875 -0.78125 -2.359375 -2.265625q-0.796875 -1.5 -0.796875 -3.65625zm3.375 0.1875q0 1.84375 0.875 2.828125q0.875 0.984375 2.171875 0.984375q1.28125 0 2.15625 -0.984375q0.875 -0.984375 0.875 -2.859375q0 -1.828125 -0.875 -2.8125q-0.875 -0.984375 -2.15625 -0.984375q-1.296875 0 -2.171875 0.984375q-0.875 0.984375 -0.875 2.84375zm11.800781 -6.234375l3.03125 0l0 1.703125q1.625 -1.984375 3.875 -1.984375q1.203125 0 2.078125 0.5q0.875 0.484375 1.4375 1.484375q0.828125 -1.0 1.765625 -1.484375q0.953125 -0.5 2.03125 -0.5q1.375 0 2.3125 0.5625q0.953125 0.5625 1.421875 1.640625q0.34375 0.796875 0.34375 2.578125l0 7.953125l-3.296875 0l0 -7.109375q0 -1.859375 -0.328125 -2.390625q-0.46875 -0.703125 -1.40625 -0.703125q-0.703125 0 -1.3125 0.421875q-0.609375 0.421875 -0.875 1.234375q-0.265625 0.8125 -0.265625 2.5625l0 5.984375l-3.296875 0l0 -6.828125q0 -1.8125 -0.171875 -2.328125q-0.171875 -0.53125 -0.546875 -0.78125q-0.375 -0.265625 -1.0 -0.265625q-0.765625 0 -1.375 0.40625q-0.609375 0.40625 -0.875 1.1875q-0.265625 0.765625 -0.265625 2.5625l0 6.046875l-3.28125 0l0 -12.453125zm21.480469 0l3.078125 0l0 1.828125q0.59375 -0.9375 1.609375 -1.515625q1.03125 -0.59375 2.265625 -0.59375q2.171875 0 3.671875 1.703125q1.515625 1.703125 1.515625 4.734375q0 3.125 -1.53125 4.859375q-1.515625 1.71875 -3.671875 1.71875q-1.03125 0 -1.875 -0.40625q-0.84375 -0.421875 -1.765625 -1.40625l0 6.265625l-3.296875 0l0 -17.1875zm3.265625 6.015625q0 2.09375 0.828125 3.109375q0.828125 1.0 2.03125 1.0q1.140625 0 1.90625 -0.921875q0.765625 -0.921875 0.765625 -3.015625q0 -1.96875 -0.796875 -2.90625q-0.78125 -0.953125 -1.9375 -0.953125q-1.203125 0 -2.0 0.9375q-0.796875 0.921875 -0.796875 2.75zm10.738281 0.03125q0 -1.640625 0.796875 -3.171875q0.8125 -1.53125 2.296875 -2.34375q1.484375 -0.8125 3.3125 -0.8125q2.828125 0 4.625 1.84375q1.8125 1.828125 1.8125 4.625q0 2.828125 -1.828125 4.6875q-1.828125 1.859375 -4.59375 1.859375q-1.703125 0 -3.265625 -0.765625q-1.546875 -0.78125 -2.359375 -2.265625q-0.796875 -1.5 -0.796875 -3.65625zm3.375 0.1875q0 1.84375 0.875 2.828125q0.875 0.984375 2.171875 0.984375q1.28125 0 2.15625 -0.984375q0.875 -0.984375 0.875 -2.859375q0 -1.828125 -0.875 -2.8125q-0.875 -0.984375 -2.15625 -0.984375q-1.296875 0 -2.171875 0.984375q-0.875 0.984375 -0.875 2.84375zm23.363281 6.21875l-3.296875 0l0 -6.359375q0 -2.015625 -0.21875 -2.59375q-0.203125 -0.59375 -0.6875 -0.921875q-0.46875 -0.328125 -1.125 -0.328125q-0.859375 0 -1.546875 0.46875q-0.671875 0.46875 -0.921875 1.25q-0.25 0.765625 -0.25 2.84375l0 5.640625l-3.296875 0l0 -12.453125l3.0625 0l0 1.828125q1.625 -2.109375 4.09375 -2.109375q1.09375 0 1.984375 0.40625q0.90625 0.390625 1.375 1.0q0.46875 0.609375 0.640625 1.390625q0.1875 0.765625 0.1875 2.203125l0 7.734375zm10.550781 -3.96875l3.28125 0.5625q-0.640625 1.796875 -2.015625 2.75q-1.359375 0.9375 -3.40625 0.9375q-3.25 0 -4.796875 -2.125q-1.234375 -1.703125 -1.234375 -4.28125q0 -3.09375 1.609375 -4.84375q1.625 -1.765625 4.09375 -1.765625q2.78125 0 4.375 1.84375q1.609375 1.828125 1.546875 5.609375l-8.25 0q0.03125 1.46875 0.796875 2.28125q0.765625 0.8125 1.890625 0.8125q0.78125 0 1.296875 -0.421875q0.53125 -0.421875 0.8125 -1.359375zm0.1875 -3.328125q-0.046875 -1.421875 -0.75 -2.15625q-0.703125 -0.75 -1.703125 -0.75q-1.078125 0 -1.78125 0.78125q-0.703125 0.78125 -0.6875 2.125l4.921875 0zm17.269531 7.296875l-3.296875 0l0 -6.359375q0 -2.015625 -0.21875 -2.59375q-0.203125 -0.59375 -0.6875 -0.921875q-0.46875 -0.328125 -1.125 -0.328125q-0.859375 0 -1.546875 0.46875q-0.671875 0.46875 -0.921875 1.25q-0.25 0.765625 -0.25 2.84375l0 5.640625l-3.296875 0l0 -12.453125l3.0625 0l0 1.828125q1.625 -2.109375 4.09375 -2.109375q1.09375 0 1.984375 0.40625q0.90625 0.390625 1.375 1.0q0.46875 0.609375 0.640625 1.390625q0.1875 0.765625 0.1875 2.203125l0 7.734375zm9.050781 -12.453125l0 2.625l-2.25 0l0 5.015625q0 1.53125 0.0625 1.78125q0.0625 0.25 0.28125 0.421875q0.234375 0.15625 0.5625 0.15625q0.453125 0 1.328125 -0.3125l0.28125 2.546875q-1.15625 0.5 -2.609375 0.5q-0.890625 0 -1.609375 -0.296875q-0.703125 -0.296875 -1.046875 -0.765625q-0.328125 -0.484375 -0.453125 -1.296875q-0.109375 -0.578125 -0.109375 -2.3125l0 -5.4375l-1.515625 0l0 -2.625l1.515625 0l0 -2.46875l3.3125 -1.921875l0 4.390625l2.25 0z" fill-rule="nonzero"/><path fill="#ffffff" d="m752.6999 626.8768l0 -17.1875l3.296875 0l0 17.1875l-3.296875 0zm6.6679688 -14.140625l0 -3.046875l3.296875 0l0 3.046875l-3.296875 0zm0 14.140625l0 -12.453125l3.296875 0l0 12.453125l-3.296875 0zm6.5273438 0l0 -17.1875l3.296875 0l0 6.1875q1.53125 -1.734375 3.609375 -1.734375q2.28125 0 3.765625 1.65625q1.484375 1.640625 1.484375 4.71875q0 3.1875 -1.515625 4.921875q-1.515625 1.71875 -3.6875 1.71875q-1.0625 0 -2.109375 -0.53125q-1.03125 -0.53125 -1.78125 -1.578125l0 1.828125l-3.0625 0zm3.28125 -6.5q0 1.9375 0.609375 2.859375q0.84375 1.3125 2.265625 1.3125q1.09375 0 1.859375 -0.921875q0.765625 -0.9375 0.765625 -2.9375q0 -2.140625 -0.78125 -3.078125q-0.765625 -0.9375 -1.96875 -0.9375q-1.1875 0 -1.96875 0.921875q-0.78125 0.90625 -0.78125 2.78125zm14.675781 6.5l-3.296875 0l0 -12.453125l3.0625 0l0 1.78125q0.78125 -1.265625 1.40625 -1.65625q0.640625 -0.40625 1.4375 -0.40625q1.125 0 2.15625 0.625l-1.015625 2.875q-0.828125 -0.546875 -1.546875 -0.546875q-0.6875 0 -1.171875 0.390625q-0.484375 0.375 -0.765625 1.375q-0.265625 1.0 -0.265625 4.171875l0 3.84375zm8.652344 -8.65625l-2.984375 -0.53125q0.5 -1.8125 1.71875 -2.671875q1.234375 -0.875 3.671875 -0.875q2.203125 0 3.28125 0.53125q1.078125 0.515625 1.515625 1.328125q0.4375 0.796875 0.4375 2.9375l-0.03125 3.84375q0 1.640625 0.15625 2.421875q0.15625 0.78125 0.59375 1.671875l-3.265625 0q-0.125 -0.328125 -0.3125 -0.96875q-0.078125 -0.296875 -0.125 -0.390625q-0.84375 0.8125 -1.8125 1.234375q-0.953125 0.40625 -2.03125 0.40625q-1.921875 0 -3.03125 -1.046875q-1.109375 -1.046875 -1.109375 -2.640625q0 -1.046875 0.5 -1.875q0.5 -0.828125 1.40625 -1.265625q0.921875 -0.4375 2.625 -0.765625q2.3125 -0.4375 3.203125 -0.8125l0 -0.328125q0 -0.953125 -0.46875 -1.34375q-0.46875 -0.40625 -1.765625 -0.40625q-0.890625 0 -1.390625 0.34375q-0.484375 0.34375 -0.78125 1.203125zm4.40625 2.671875q-0.640625 0.21875 -2.015625 0.515625q-1.359375 0.28125 -1.78125 0.5625q-0.640625 0.46875 -0.640625 1.171875q0 0.6875 0.515625 1.1875q0.515625 0.5 1.3125 0.5q0.890625 0 1.6875 -0.578125q0.609375 -0.453125 0.796875 -1.09375q0.125 -0.421875 0.125 -1.609375l0 -0.65625zm9.628906 5.984375l-3.296875 0l0 -12.453125l3.0625 0l0 1.78125q0.78125 -1.265625 1.40625 -1.65625q0.640625 -0.40625 1.4375 -0.40625q1.125 0 2.15625 0.625l-1.015625 2.875q-0.828125 -0.546875 -1.546875 -0.546875q-0.6875 0 -1.171875 0.390625q-0.484375 0.375 -0.765625 1.375q-0.265625 1.0 -0.265625 4.171875l0 3.84375zm4.6367188 -12.453125l3.5 0l2.96875 8.84375l2.90625 -8.84375l3.421875 0l-4.40625 11.984375l-0.78125 2.171875q-0.4375 1.09375 -0.828125 1.65625q-0.390625 0.578125 -0.90625 0.9375q-0.5 0.359375 -1.25 0.546875q-0.734375 0.203125 -1.671875 0.203125q-0.953125 0 -1.875 -0.1875l-0.28125 -2.578125q0.765625 0.140625 1.390625 0.140625q1.140625 0 1.6875 -0.671875q0.5625 -0.671875 0.859375 -1.71875l-4.734375 -12.484375z" fill-rule="nonzero"/><path fill="#000000" fill-opacity="0.0" d="m54.199474 566.2441l153.13385 0l0 48.472473l-153.13385 0z" fill-rule="evenodd"/><path fill="#ffffff" d="m74.4793 598.2841l0 -17.1875l5.1875 0l3.125 11.71875l3.078125 -11.71875l5.203125 0l0 17.1875l-3.21875 0l0 -13.53125l-3.421875 13.53125l-3.328125 0l-3.40625 -13.53125l0 13.53125l-3.21875 0zm19.257812 -6.40625q0 -1.640625 0.796875 -3.171875q0.8125 -1.53125 2.296875 -2.34375q1.484375 -0.8125 3.3125 -0.8125q2.828125 0 4.625 1.84375q1.8125 1.828125 1.8125 4.625q0 2.828125 -1.828125 4.6875q-1.828125 1.859375 -4.59375 1.859375q-1.703125 0 -3.265625 -0.765625q-1.546875 -0.78125 -2.359375 -2.265625q-0.796875 -1.5 -0.796875 -3.65625zm3.375 0.1875q0 1.84375 0.875 2.828125q0.875 0.984375 2.171875 0.984375q1.28125 0 2.15625 -0.984375q0.875 -0.984375 0.875 -2.859375q0 -1.828125 -0.875 -2.8125q-0.875 -0.984375 -2.15625 -0.984375q-1.296875 0 -2.171875 0.984375q-0.875 0.984375 -0.875 2.84375zm23.363281 6.21875l-3.296875 0l0 -6.359375q0 -2.015625 -0.21875 -2.59375q-0.203125 -0.59375 -0.6875 -0.921875q-0.46875 -0.328125 -1.125 -0.328125q-0.859375 0 -1.546875 0.46875q-0.671875 0.46875 -0.921875 1.25q-0.25 0.765625 -0.25 2.84375l0 5.640625l-3.296875 0l0 -12.453125l3.0625 0l0 1.828125q1.625 -2.109375 4.09375 -2.109375q1.09375 0 1.984375 0.40625q0.90625 0.390625 1.375 1.0q0.46875 0.609375 0.640625 1.390625q0.1875 0.765625 0.1875 2.203125l0 7.734375zm2.5820312 -6.40625q0 -1.640625 0.796875 -3.171875q0.8125 -1.53125 2.296875 -2.34375q1.484375 -0.8125 3.3124924 -0.8125q2.828125 0 4.625 1.84375q1.8125 1.828125 1.8125 4.625q0 2.828125 -1.828125 4.6875q-1.828125 1.859375 -4.59375 1.859375q-1.7031174 0 -3.2656174 -0.765625q-1.546875 -0.78125 -2.359375 -2.265625q-0.796875 -1.5 -0.796875 -3.65625zm3.375 0.1875q0 1.84375 0.875 2.828125q0.8749924 0.984375 2.1718674 0.984375q1.28125 0 2.15625 -0.984375q0.875 -0.984375 0.875 -2.859375q0 -1.828125 -0.875 -2.8125q-0.875 -0.984375 -2.15625 -0.984375q-1.296875 0 -2.1718674 0.984375q-0.875 0.984375 -0.875 2.84375zm15.191399 6.21875l-3.296875 0l0 -12.453125l3.0625 0l0 1.78125q0.78125 -1.265625 1.40625 -1.65625q0.640625 -0.40625 1.4375 -0.40625q1.125 0 2.15625 0.625l-1.015625 2.875q-0.828125 -0.546875 -1.546875 -0.546875q-0.6875 0 -1.171875 0.390625q-0.484375 0.375 -0.765625 1.375q-0.265625 1.0 -0.265625 4.171875l0 3.84375zm13.402344 -3.96875l3.28125 0.5625q-0.640625 1.796875 -2.015625 2.75q-1.359375 0.9375 -3.40625 0.9375q-3.25 0 -4.796875 -2.125q-1.234375 -1.703125 -1.234375 -4.28125q0 -3.09375 1.609375 -4.84375q1.625 -1.765625 4.09375 -1.765625q2.78125 0 4.375 1.84375q1.609375 1.828125 1.546875 5.609375l-8.25 0q0.03125 1.46875 0.796875 2.28125q0.765625 0.8125 1.890625 0.8125q0.78125 0 1.296875 -0.421875q0.53125 -0.421875 0.8125 -1.359375zm0.1875 -3.328125q-0.046875 -1.421875 -0.75 -2.15625q-0.703125 -0.75 -1.703125 -0.75q-1.078125 0 -1.78125 0.78125q-0.703125 0.78125 -0.6875 2.125l4.921875 0zm5.8476562 -5.15625l3.078125 0l0 1.828125q0.59375 -0.9375 1.609375 -1.515625q1.03125 -0.59375 2.265625 -0.59375q2.171875 0 3.671875 1.703125q1.515625 1.703125 1.515625 4.734375q0 3.125 -1.53125 4.859375q-1.515625 1.71875 -3.671875 1.71875q-1.03125 0 -1.875 -0.40625q-0.84375 -0.421875 -1.765625 -1.40625l0 6.265625l-3.296875 0l0 -17.1875zm3.265625 6.015625q0 2.09375 0.828125 3.109375q0.828125 1.0 2.03125 1.0q1.140625 0 1.90625 -0.921875q0.765625 -0.921875 0.765625 -3.015625q0 -1.96875 -0.796875 -2.90625q-0.78125 -0.953125 -1.9375 -0.953125q-1.203125 0 -2.0 0.9375q-0.796875 0.921875 -0.796875 2.75zm10.738281 0.03125q0 -1.640625 0.796875 -3.171875q0.8125 -1.53125 2.296875 -2.34375q1.484375 -0.8125 3.3125 -0.8125q2.828125 0 4.625 1.84375q1.8125 1.828125 1.8125 4.625q0 2.828125 -1.828125 4.6875q-1.828125 1.859375 -4.59375 1.859375q-1.703125 0 -3.265625 -0.765625q-1.546875 -0.78125 -2.359375 -2.265625q-0.796875 -1.5 -0.796875 -3.65625zm3.375 0.1875q0 1.84375 0.875 2.828125q0.875 0.984375 2.171875 0.984375q1.28125 0 2.15625 -0.984375q0.875 -0.984375 0.875 -2.859375q0 -1.828125 -0.875 -2.8125q-0.875 -0.984375 -2.15625 -0.984375q-1.296875 0 -2.171875 0.984375q-0.875 0.984375 -0.875 2.84375z" fill-rule="nonzero"/></g></svg>